HIERARCHY
ROOT joint_Root
{
	OFFSET 0.0 0.0 0.0
	CHANNELS 6 Xposition Yposition Zposition Zrotation Xrotation Yrotation 
	JOINT Hips
	{
		OFFSET 4.5925 91.4895 -427.239
		CHANNELS 6 Xposition Yposition Zposition Zrotation Xrotation Yrotation 
		JOINT Spine
		{
			OFFSET 15.7357 0.0 0.0
			CHANNELS 6 Xposition Yposition Zposition Zrotation Xrotation Yrotation 
			JOINT Chest
			{
				OFFSET 8.98455 -0.406207 0.0
				CHANNELS 6 Xposition Yposition Zposition Zrotation Xrotation Yrotation 
				JOINT Neck
				{
					OFFSET 16.3773 0.0 0.0
					CHANNELS 6 Xposition Yposition Zposition Zrotation Xrotation Yrotation 
					JOINT Head
					{
						OFFSET 6.45672 0.0 0.0
						CHANNELS 6 Xposition Yposition Zposition Zrotation Xrotation Yrotation 
						End Site
						{
							OFFSET 0.0 0.0 0.0
						}
					}
				}
				JOINT Shoulder_L
				{
					OFFSET 12.9942 -0.242716 4.98039
					CHANNELS 6 Xposition Yposition Zposition Zrotation Xrotation Yrotation 
					JOINT UpperArm_L
					{
						OFFSET 5.34809 0.0 0.0
						CHANNELS 6 Xposition Yposition Zposition Zrotation Xrotation Yrotation 
						JOINT LowerArm_L
						{
							OFFSET 24.3286 1.87007e-05 0.0
							CHANNELS 6 Xposition Yposition Zposition Zrotation Xrotation Yrotation 
							JOINT Hand_L
							{
								OFFSET 22.2916 0.0 0.0
								CHANNELS 6 Xposition Yposition Zposition Zrotation Xrotation Yrotation 
								End Site
								{
									OFFSET 0.0 0.0 0.0
								}
							}
						}
					}
				}
				JOINT Shoulder_R
				{
					OFFSET 12.9945 -0.242716 -4.98039
					CHANNELS 6 Xposition Yposition Zposition Zrotation Xrotation Yrotation 
					JOINT UpperArm_R
					{
						OFFSET -5.34813 0.0 0.0
						CHANNELS 6 Xposition Yposition Zposition Zrotation Xrotation Yrotation 
						JOINT LowerArm_R
						{
							OFFSET -24.3289 0.000322201 0.0
							CHANNELS 6 Xposition Yposition Zposition Zrotation Xrotation Yrotation 
							JOINT Hand_R
							{
								OFFSET -22.2915 -0.000108084 0.0
								CHANNELS 6 Xposition Yposition Zposition Zrotation Xrotation Yrotation 
								End Site
								{
									OFFSET 0.0 0.0 0.0
								}
							}
						}
					}
				}
			}
		}
		JOINT UpperLeg_L
		{
			OFFSET -2.19248 -6.46944 0.0
			CHANNELS 6 Xposition Yposition Zposition Zrotation Xrotation Yrotation 
			JOINT LowerLeg_L
			{
				OFFSET 39.0811 0.0 -1.23785e-05
				CHANNELS 6 Xposition Yposition Zposition Zrotation Xrotation Yrotation 
				JOINT Foot_L
				{
					OFFSET 40.9854 0.0 -1.26872e-05
					CHANNELS 6 Xposition Yposition Zposition Zrotation Xrotation Yrotation 
					JOINT Toes_L
					{
						OFFSET 11.7543 0.0 0.0
						CHANNELS 6 Xposition Yposition Zposition Zrotation Xrotation Yrotation 
						End Site
						{
							OFFSET 0.0 0.0 0.0
						}
					}
				}
			}
		}
		JOINT UpperLeg_R
		{
			OFFSET -2.19251 6.46944 0.0
			CHANNELS 6 Xposition Yposition Zposition Zrotation Xrotation Yrotation 
			JOINT LowerLeg_R
			{
				OFFSET -39.0811 -0.00228153 -0.0401928
				CHANNELS 6 Xposition Yposition Zposition Zrotation Xrotation Yrotation 
				JOINT Foot_R
				{
					OFFSET -40.9854 0.0 0.0
					CHANNELS 6 Xposition Yposition Zposition Zrotation Xrotation Yrotation 
					JOINT Toes_R
					{
						OFFSET -11.7543 0.0 0.0
						CHANNELS 6 Xposition Yposition Zposition Zrotation Xrotation Yrotation 
						End Site
						{
							OFFSET 0.0 0.0 0.0
						}
					}
				}
			}
		}
	}
}
MOTION
Frames:	8
Frame Time:	0.0333333
0.000000 0.000000 0.000000 0.000000 0.000000 -0.000000 2.416730 89.049300 -510.802000 89.477400 -7.939770 -4.071740 15.735700 0.000005 -0.000001 112.997000 83.392400 -113.606000 8.984550 -0.406207 -0.000000 4.441420 5.171930 -1.418000 16.377300 -0.000001 -0.000001 -4.546510 -3.641520 2.598390 6.456720 -0.000001 -0.000000 -7.578160 -4.948590 1.333520 12.994200 -0.242716 4.980390 -89.334800 -2.507240 -75.139800 5.348090 -0.000007 -0.000001 -78.628200 20.554000 33.902800 24.328600 0.000019 0.000005 9.082780 3.632890 -68.371400 22.291600 -0.000001 0.000005 15.497200 5.569800 -9.686340 12.994500 -0.242716 -4.980390 89.640600 4.514030 -85.444400 -5.348130 -0.000001 -0.000004 -60.920300 13.746800 -41.651300 -24.328900 0.000322 -0.000009 -18.306900 5.332010 -105.687000 -22.291500 -0.000108 -0.000004 25.978700 5.655230 -15.541500 -2.192480 -6.469440 -0.000000 176.559000 -13.062200 -27.572700 39.081100 -0.000007 -0.000012 -0.038975 0.045370 40.665200 40.985400 -0.000006 -0.000013 2.631230 -4.067570 -70.431000 11.754300 -0.000000 0.000003 -0.001025 -0.015768 -17.218100 -2.192510 6.469440 -0.000001 174.921000 13.040600 176.985000 -39.081100 -0.002282 -0.040193 0.081652 -0.082397 43.569900 -40.985400 0.000008 0.000006 5.498110 2.785900 -62.494200 -11.754300 -0.000006 -0.000006 -0.130039 -0.513696 -38.183800
0.000000 0.000000 0.000000 0.000000 0.000000 -0.000000 2.705120 88.300100 -506.072000 88.545700 -7.959450 -2.197740 15.735700 0.000005 -0.000001 107.180000 83.102600 -107.489000 8.984550 -0.406207 -0.000000 5.435060 4.071690 -0.810545 16.377300 -0.000001 -0.000001 -4.442570 -3.076690 2.463520 6.456720 -0.000001 -0.000000 -7.701770 -3.956010 1.226760 12.994200 -0.242716 4.980390 -89.792100 -0.809033 -75.589600 5.348090 -0.000007 -0.000001 -76.625800 16.703500 27.963000 24.328600 0.000019 0.000005 11.251500 3.692800 -72.060000 22.291600 -0.000001 0.000005 17.482000 5.560070 -9.189890 12.994500 -0.242716 -4.980390 89.522900 6.263460 -85.637800 -5.348130 -0.000001 -0.000004 -59.459600 18.548400 -33.368900 -24.328900 0.000322 -0.000009 -17.993900 3.477980 -100.579000 -22.291500 -0.000108 -0.000004 25.609700 5.660110 -16.071600 -2.192480 -6.469440 -0.000000 178.200000 -13.035300 -23.451500 39.081100 -0.000007 -0.000012 -0.312034 0.324528 43.876300 40.985400 -0.000006 -0.000013 2.143320 -4.410840 -74.313600 11.754300 -0.000000 0.000003 -0.002338 -0.032872 -17.913500 -2.192510 6.469440 -0.000001 175.392000 10.533800 173.763000 -39.081100 -0.002282 -0.040193 0.119349 -0.082119 54.732600 -40.985400 0.000008 0.000006 5.846520 0.589163 -54.059900 -11.754300 -0.000006 -0.000006 -0.097564 -0.438472 -34.861600
0.000000 0.000000 0.000000 0.000000 0.000000 -0.000000 2.996110 86.904900 -501.804000 88.948600 -6.685920 -0.818103 15.735700 0.000005 -0.000001 97.211100 83.051300 -97.646900 8.984550 -0.406207 -0.000000 6.030400 1.746370 -0.962798 16.377300 -0.000001 -0.000001 -4.253580 -2.606250 2.294270 6.456720 -0.000001 -0.000000 -7.539200 -2.621600 1.493120 12.994200 -0.242716 4.980390 -90.394900 1.531840 -75.550200 5.348090 -0.000007 -0.000001 -73.215100 14.547400 18.955800 24.328600 0.000019 0.000005 10.031100 2.433680 -76.506400 22.291600 -0.000001 0.000005 18.888500 5.556670 -9.029570 12.994500 -0.242716 -4.980390 89.266400 8.112860 -84.815700 -5.348130 -0.000001 -0.000004 -58.491400 23.647300 -25.972100 -24.328900 0.000322 -0.000009 -18.239200 0.604126 -91.827400 -22.291500 -0.000108 -0.000004 26.366700 5.672820 -17.800800 -2.192480 -6.469440 -0.000000 178.069000 -9.686300 -20.974400 39.081100 -0.000007 -0.000012 -0.496589 0.449637 47.841900 40.985400 -0.000006 -0.000013 1.077000 -6.408890 -78.470600 11.754300 -0.000000 0.000003 -0.000013 -0.000176 -16.584500 -2.192510 6.469440 -0.000001 175.215000 9.309090 167.709000 -39.081100 -0.002282 -0.040193 0.135276 -0.054408 67.620300 -40.985400 0.000008 0.000006 6.133510 -2.497380 -46.958000 -11.754300 -0.000006 -0.000006 -0.012447 -0.121097 -21.510300
0.000000 0.000000 0.000000 0.000000 0.000000 -0.000000 3.272650 85.497900 -498.144000 89.800000 -4.863840 -0.594184 15.735700 0.000005 -0.000001 89.245700 83.019700 -90.004900 8.984550 -0.406207 -0.000000 6.192680 -0.172859 -1.507290 16.377300 -0.000001 -0.000001 -4.209600 -2.775550 1.944290 6.456720 -0.000001 -0.000000 -7.706550 -1.957030 2.201990 12.994200 -0.242716 4.980390 -91.005100 3.927100 -75.630400 5.348090 -0.000007 -0.000001 -68.539700 13.922100 5.489350 24.328600 0.000019 0.000005 8.863750 1.520120 -80.350200 22.291600 -0.000001 0.000005 20.547200 5.550950 -8.756600 12.994500 -0.242716 -4.980390 89.008800 9.780000 -84.185300 -5.348130 -0.000001 -0.000004 -59.655000 26.036200 -17.123100 -24.328900 0.000322 -0.000009 -17.471700 -2.460350 -82.231600 -22.291500 -0.000108 -0.000004 28.734100 5.680340 -19.661700 -2.192480 -6.469440 -0.000000 177.049000 -6.880560 -19.603100 39.081100 -0.000007 -0.000012 -0.639158 0.517189 51.022900 40.985400 -0.000006 -0.000013 0.343560 -7.539750 -82.855200 11.754300 -0.000000 0.000003 -0.000031 -0.000374 -16.592200 -2.192510 6.469440 -0.000001 175.407000 8.535990 160.626000 -39.081100 -0.002282 -0.040193 0.094190 -0.018561 78.503900 -40.985400 0.000008 0.000006 7.094800 -5.334310 -52.676100 -11.754300 -0.000006 -0.000006 -0.015737 -0.142409 -22.384500
0.000000 0.000000 0.000000 0.000000 0.000000 -0.000000 3.440560 84.483100 -494.572000 89.874400 -3.887000 -0.476982 15.735700 0.000005 -0.000001 86.776900 82.795500 -87.599100 8.984550 -0.406207 -0.000000 6.615450 -0.799357 -1.596410 16.377300 -0.000001 -0.000001 -4.496090 -2.913360 1.740860 6.456720 -0.000001 -0.000000 -7.852920 -2.058900 2.597740 12.994200 -0.242716 4.980390 -91.429300 5.790980 -76.108900 5.348090 -0.000007 -0.000001 -64.439700 12.980400 -10.364000 24.328600 0.000019 0.000005 6.539370 0.676816 -84.137400 22.291600 -0.000001 0.000005 21.989700 5.557330 -9.055860 12.994500 -0.242716 -4.980390 88.802800 11.151600 -83.833400 -5.348130 -0.000001 -0.000004 -61.329800 25.795400 -6.524520 -24.328900 0.000322 -0.000009 -17.471400 -4.586160 -75.745300 -22.291500 -0.000108 -0.000004 29.769700 5.679580 -19.432100 -2.192480 -6.469440 -0.000000 177.141000 -7.315250 -17.339000 39.081100 -0.000007 -0.000012 -0.675365 0.518182 52.504200 40.985400 -0.000006 -0.000013 0.575658 -6.407700 -86.451300 11.754300 -0.000000 0.000003 -0.000058 -0.000647 -16.602600 -2.192510 6.469440 -0.000001 176.404000 7.399130 153.493000 -39.081100 -0.002282 -0.040193 0.044966 -0.004068 84.533400 -40.985400 0.000008 0.000006 6.891440 -5.627320 -56.201500 -11.754300 -0.000006 -0.000006 -0.014653 -0.135618 -22.105700
0.000000 0.000000 0.000000 0.000000 0.000000 -0.000000 3.392060 83.999500 -490.785000 89.563500 -1.949710 -0.996632 15.735700 0.000005 -0.000001 83.185500 82.779100 -83.759100 8.984550 -0.406207 -0.000000 6.567780 -1.702310 -1.048280 16.377300 -0.000001 -0.000001 -4.801510 -3.322330 1.406160 6.456720 -0.000001 -0.000000 -8.098130 -2.083880 2.815300 12.994200 -0.242716 4.980390 -91.325300 5.940240 -77.400300 5.348090 -0.000007 -0.000001 -63.239800 11.450200 -24.824300 24.328600 0.000019 0.000005 3.194520 0.046194 -89.195200 22.291600 -0.000001 0.000005 22.547600 5.568420 -9.606920 12.994500 -0.242716 -4.980390 88.586600 11.107400 -82.701100 -5.348130 -0.000001 -0.000004 -63.591100 25.366400 4.863500 -24.328900 0.000322 -0.000009 -18.476600 -5.388540 -74.300400 -22.291500 -0.000108 -0.000004 29.628300 5.679110 -19.284800 -2.192480 -6.469440 -0.000000 178.048000 -7.263120 -14.475900 39.081100 -0.000007 -0.000012 -0.706551 0.555677 51.818200 40.985400 -0.000006 -0.000013 0.904607 -4.701050 -89.006300 11.754300 -0.000000 0.000003 -0.000046 -0.000529 -16.598100 -2.192510 6.469440 -0.000001 177.888000 8.567410 147.226000 -39.081100 -0.002282 -0.040193 0.040385 -0.003199 85.194700 -40.985400 0.000008 0.000006 5.768100 -5.603270 -59.920600 -11.754300 -0.000006 -0.000006 -0.012900 -0.124161 -21.635900
0.000000 0.000000 0.000000 0.000000 0.000000 -0.000000 3.152810 84.196800 -486.519000 88.920100 0.312910 -1.624220 15.735700 0.000005 -0.000001 76.388600 82.836600 -76.518400 8.984550 -0.406207 -0.000000 6.162790 -3.360390 -0.078423 16.377300 -0.000001 -0.000001 -4.939090 -3.480160 1.120030 6.456720 -0.000001 -0.000000 -8.294360 -1.181230 2.974990 12.994200 -0.242716 4.980390 -90.802700 3.993640 -78.630600 5.348090 -0.000007 -0.000001 -64.849000 9.638020 -35.289200 24.328600 0.000019 0.000005 3.343100 -0.330174 -95.610900 22.291600 -0.000001 0.000005 22.808900 5.569640 -9.670230 12.994500 -0.242716 -4.980390 88.407900 10.024000 -80.925700 -5.348130 -0.000001 -0.000004 -66.160400 26.434600 15.375100 -24.328900 0.000322 -0.000009 -18.869500 -4.882070 -76.016300 -22.291500 -0.000108 -0.000004 28.977300 5.678880 -19.209500 -2.192480 -6.469440 -0.000000 179.484000 -6.611860 -10.046600 39.081100 -0.000007 -0.000012 -0.550475 0.493533 48.123300 40.985400 -0.000006 -0.000013 1.924460 -3.463270 -90.228000 11.754300 -0.000000 0.000003 -0.612449 -0.765768 -16.101800 -2.192510 6.469440 -0.000001 -179.849000 10.478500 143.132000 -39.081100 -0.002282 -0.040193 0.037866 -0.005759 80.666100 -40.985400 0.000008 0.000006 5.511050 -5.999290 -63.480500 -11.754300 -0.000006 -0.000006 -0.015288 -0.139625 -22.270200
0.000000 0.000000 0.000000 0.000000 0.000000 -0.000000 2.855710 85.026800 -481.828000 87.831200 1.347740 -2.782180 15.735700 0.000005 -0.000001 68.622800 83.065500 -68.138200 8.984550 -0.406207 -0.000000 5.186400 -5.055550 1.197690 16.377300 -0.000001 -0.000001 -5.058410 -3.050240 0.933687 6.456720 -0.000001 -0.000000 -8.265000 0.264892 2.738620 12.994200 -0.242716 4.980390 -90.227500 1.120240 -78.507300 5.348090 -0.000007 -0.000001 -66.993900 8.285540 -42.010500 24.328600 0.000019 0.000005 3.895170 -0.822428 -101.920000 22.291600 -0.000001 0.000005 22.748800 5.560370 -9.205280 12.994500 -0.242716 -4.980390 88.531300 8.055220 -79.629000 -5.348130 -0.000001 -0.000004 -69.433600 27.834800 23.948300 -24.328900 0.000322 -0.000009 -17.952500 -3.978560 -77.912000 -22.291500 -0.000108 -0.000004 28.310500 5.678220 -19.017400 -2.192480 -6.469440 -0.000000 -179.127000 -5.860310 -4.581930 39.081100 -0.000007 -0.000012 0.001519 -0.001721 41.396700 40.985400 -0.000006 -0.000013 3.945610 -3.548950 -89.630500 11.754300 -0.000000 0.000003 -0.136087 -0.146741 -15.493000 -2.192510 6.469440 -0.000001 -177.010000 11.304500 140.584000 -39.081100 -0.002282 -0.040193 0.023488 -0.006680 71.870100 -40.985400 0.000008 0.000006 4.447370 -5.495240 -66.120900 -11.754300 -0.000006 -0.000006 -0.015263 -0.139466 -22.263700
